<svg width="303" height="75" viewBox="0 0 303 75" fill="none" xmlns="http://www.w3.org/2000/svg">
<path d="M74.422 20.8222C74.422 22.1259 73.9504 23.2321 73.0074 24.1407C72.1036 25.0494 71.0033 25.5037 69.7066 25.5037C68.4099 25.5037 67.3096 25.0494 66.4058 24.1407C65.5021 23.2321 65.0502 22.1259 65.0502 20.8222C65.0502 19.5185 65.5021 18.4123 66.4058 17.5037C67.3096 16.5556 68.4099 16.0815 69.7066 16.0815C71.0033 16.0815 72.1036 16.5556 73.0074 17.5037C73.9504 18.4123 74.422 19.5185 74.422 20.8222ZM59.3917 51.5778C59.3917 51.0642 59.431 50.4914 59.5096 49.8593C59.5881 49.1877 59.706 48.4766 59.8632 47.7259L63.8713 28.7037H72.359L68.1151 48.8518C68.0366 49.2074 67.9776 49.5432 67.9383 49.8593C67.899 50.1358 67.8794 50.4321 67.8794 50.7481C67.8794 51.5382 68.0562 52.1111 68.4099 52.4667C68.8028 52.7827 69.4315 52.9407 70.296 52.9407C71.3963 52.9407 72.4375 52.4667 73.42 51.5185C74.4024 50.5308 75.1293 49.2667 75.6008 47.7259H78.0764C76.819 51.321 75.1293 54.0469 73.0074 55.9037C70.8854 57.7605 68.4492 58.6889 65.6985 58.6889C63.7338 58.6889 62.1816 58.0766 61.0421 56.8519C59.9418 55.5877 59.3917 53.8296 59.3917 51.5778ZM85.3028 48.3185C85.3028 49.8593 85.519 51.0247 85.9512 51.8148C86.3834 52.5655 87.1496 52.9407 88.2499 52.9407C89.2323 52.9407 90.195 52.4864 91.1381 51.5778C92.0812 50.6296 92.73 49.4444 93.0836 48.0222V47.7259L95.9718 34.1556C95.8539 33.5234 95.5785 33.0296 95.1466 32.6741C94.7534 32.279 94.2229 32.0815 93.5552 32.0815C91.3935 32.0815 89.4681 33.8988 87.7784 37.5333C86.128 41.1679 85.3028 44.763 85.3028 48.3185ZM96.5023 31.4296V31.6667L99.3905 18.037L108.114 16.8519L101.336 48.8518C101.256 49.2074 101.197 49.5432 101.159 49.8593C101.119 50.1358 101.1 50.4321 101.1 50.7481C101.1 51.5382 101.277 52.1111 101.63 52.4667C102.023 52.7827 102.652 52.9407 103.516 52.9407C104.538 52.9407 105.462 52.4864 106.287 51.5778C107.112 50.6692 107.78 49.3852 108.291 47.7259H110.766C109.548 51.2419 107.956 53.8889 105.992 55.6667C104.066 57.4444 101.709 58.3333 98.9189 58.3333C97.3072 58.3333 95.9911 57.8988 94.9698 57.0296C93.9871 56.121 93.3783 54.8568 93.1426 53.237C91.9633 55.0544 90.6469 56.4173 89.193 57.3259C87.739 58.2345 86.1476 58.6889 84.4187 58.6889C81.9824 58.6889 80.0569 57.8593 78.6423 56.2C77.267 54.5407 76.5793 52.1901 76.5793 49.1482C76.5793 46.9358 76.9134 44.6247 77.5814 42.2148C78.2493 39.8049 79.1728 37.6123 80.3516 35.637C81.8056 33.3062 83.4952 31.5284 85.4207 30.3037C87.3462 29.0395 89.4484 28.4074 91.7275 28.4074C93.2605 28.4074 94.4393 28.684 95.2645 29.237C96.0897 29.7506 96.5023 30.4815 96.5023 31.4296ZM119.925 52.9407C120.907 52.9407 121.791 52.5259 122.578 51.6963C123.363 50.8667 124.012 49.6618 124.523 48.0815L128.649 28.7037H137.137L131.301 56.2C133.266 55.4889 134.798 54.5012 135.899 53.237C137.038 51.9333 137.981 50.0963 138.728 47.7259H141.203C140.299 50.7284 139.002 53.1382 137.313 54.9556C135.663 56.7729 133.482 58.0568 130.771 58.8074L129.887 63.0741C129.179 66.3926 127.942 68.9012 126.173 70.6C124.405 72.2988 122.106 73.1481 119.277 73.1481C117.273 73.1481 115.661 72.6345 114.444 71.6074C113.265 70.5803 112.675 69.1778 112.675 67.4C112.675 65.4642 113.461 63.7456 115.033 62.2444C116.644 60.7827 119.061 59.5581 122.283 58.5704L122.99 55.3704C122.008 56.4766 120.927 57.3062 119.749 57.8593C118.608 58.4123 117.332 58.6889 115.917 58.6889C113.952 58.6889 112.4 58.0766 111.261 56.8519C110.16 55.5877 109.61 53.8296 109.61 51.5778C109.61 51.0642 109.649 50.4914 109.728 49.8593C109.807 49.1877 109.925 48.4766 110.082 47.7259L114.09 28.7037H122.578L118.334 48.8518C118.294 49.0889 118.255 49.3456 118.216 49.6222C118.176 49.8593 118.157 50.0963 118.157 50.3333C118.157 51.163 118.294 51.8148 118.57 52.2889C118.884 52.7234 119.336 52.9407 119.925 52.9407ZM121.694 61.5333C119.728 62.284 118.275 63.0544 117.332 63.8444C116.389 64.6741 115.917 65.5827 115.917 66.5704C115.917 67.084 116.113 67.5382 116.507 67.9333C116.899 68.3284 117.371 68.5259 117.921 68.5259C118.589 68.5259 119.237 68.0519 119.866 67.1037C120.495 66.1556 120.986 64.8716 121.34 63.2518L121.694 61.5333ZM159.672 31.4296V31.8444L160.32 28.7037H168.808L164.564 48.8518C164.485 49.2074 164.426 49.5432 164.387 49.8593C164.348 50.1358 164.328 50.4321 164.328 50.7481C164.328 51.6173 164.524 52.2692 164.918 52.7037C165.31 53.0988 165.92 53.2963 166.745 53.2963C167.766 53.2963 168.69 52.8222 169.515 51.8741C170.34 50.8864 171.008 49.5037 171.519 47.7259H173.995C172.737 51.3605 171.107 54.1062 169.103 55.963C167.099 57.7803 164.78 58.6889 162.147 58.6889C160.457 58.6889 159.102 58.2148 158.08 57.2667C157.098 56.3185 156.528 54.9753 156.371 53.237C155.153 55.0544 153.797 56.4173 152.304 57.3259C150.85 58.2345 149.278 58.6889 147.589 58.6889C145.152 58.6889 143.227 57.8593 141.812 56.2C140.436 54.5407 139.749 52.1901 139.749 49.1482C139.749 46.9358 140.083 44.6247 140.751 42.2148C141.419 39.8049 142.343 37.6123 143.522 35.637C144.975 33.3062 146.665 31.5284 148.591 30.3037C150.515 29.0395 152.618 28.4074 154.897 28.4074C156.43 28.4074 157.609 28.684 158.434 29.237C159.259 29.7506 159.672 30.4815 159.672 31.4296ZM159.141 34.3333C159.141 33.7407 158.925 33.2271 158.493 32.7926C158.06 32.3185 157.471 32.0815 156.725 32.0815C154.563 32.0815 152.637 33.8988 150.948 37.5333C149.298 41.1679 148.473 44.763 148.473 48.3185C148.473 49.8593 148.688 51.0247 149.121 51.8148C149.553 52.5655 150.319 52.9407 151.42 52.9407C152.441 52.9407 153.424 52.4469 154.367 51.4593C155.349 50.4716 155.997 49.2271 156.312 47.7259L159.141 34.3333ZM187.632 51.9926C187.632 51.2815 187.71 50.3926 187.867 49.3259C188.064 48.2593 188.437 46.5605 188.987 44.2296C189.537 41.9778 189.891 40.3581 190.048 39.3704C190.206 38.3827 190.284 37.5531 190.284 36.8815C190.284 35.8938 190.107 35.1432 189.754 34.6296C189.4 34.116 188.869 33.8593 188.162 33.8593C187.219 33.8593 186.335 34.3531 185.51 35.3407C184.724 36.2889 184.076 37.6123 183.565 39.3111L179.557 58.3333H171.069L177.317 28.7037H185.804L185.156 31.7852C186.139 30.679 187.2 29.8494 188.339 29.2963C189.478 28.7432 190.716 28.4667 192.052 28.4667C194.135 28.4667 195.746 29.0395 196.886 30.1852C198.025 31.3308 198.595 32.9901 198.595 35.163C198.595 36.0716 198.477 37.1581 198.241 38.4222C198.045 39.6469 197.632 41.5432 197.003 44.1111C196.492 46.1259 196.159 47.5481 196.001 48.3778C195.844 49.2074 195.766 49.8988 195.766 50.4519C195.766 51.2815 195.962 51.9136 196.355 52.3481C196.748 52.7432 197.338 52.9407 198.123 52.9407C199.106 52.9407 199.951 52.6049 200.658 51.9333C201.365 51.2618 202.171 49.8593 203.074 47.7259H205.55C204.293 51.4 202.76 54.1456 200.953 55.963C199.184 57.7803 197.062 58.6889 194.587 58.6889C192.387 58.6889 190.677 58.0963 189.459 56.9111C188.24 55.6864 187.632 54.0469 187.632 51.9926ZM224.568 31.4296V31.8444L225.217 28.7037H233.704L229.46 48.8518C229.381 49.2074 229.322 49.5432 229.284 49.8593C229.244 50.1358 229.225 50.4321 229.225 50.7481C229.225 51.6173 229.421 52.2692 229.814 52.7037C230.206 53.0988 230.816 53.2963 231.641 53.2963C232.663 53.2963 233.586 52.8222 234.411 51.8741C235.237 50.8864 235.904 49.5037 236.416 47.7259H238.891C237.633 51.3605 236.003 54.1062 233.999 55.963C231.995 57.7803 229.676 58.6889 227.044 58.6889C225.354 58.6889 223.998 58.2148 222.977 57.2667C221.994 56.3185 221.424 54.9753 221.267 53.237C220.049 55.0544 218.693 56.4173 217.2 57.3259C215.746 58.2345 214.174 58.6889 212.485 58.6889C210.048 58.6889 208.123 57.8593 206.709 56.2C205.333 54.5407 204.646 52.1901 204.646 49.1482C204.646 46.9358 204.979 44.6247 205.648 42.2148C206.315 39.8049 207.239 37.6123 208.418 35.637C209.871 33.3062 211.561 31.5284 213.487 30.3037C215.412 29.0395 217.514 28.4074 219.794 28.4074C221.326 28.4074 222.505 28.684 223.33 29.237C224.156 29.7506 224.568 30.4815 224.568 31.4296ZM224.038 34.3333C224.038 33.7407 223.821 33.2271 223.389 32.7926C222.956 32.3185 222.367 32.0815 221.621 32.0815C219.46 32.0815 217.534 33.8988 215.845 37.5333C214.194 41.1679 213.369 44.763 213.369 48.3185C213.369 49.8593 213.585 51.0247 214.017 51.8148C214.449 52.5655 215.216 52.9407 216.316 52.9407C217.338 52.9407 218.32 52.4469 219.263 51.4593C220.245 50.4716 220.893 49.2271 221.208 47.7259L224.038 34.3333ZM248.048 52.9407C249.031 52.9407 249.915 52.5259 250.701 51.6963C251.486 50.8667 252.135 49.6618 252.646 48.0815L256.772 28.7037H265.259L259.424 56.2C261.389 55.4889 262.921 54.5012 264.022 53.237C265.161 51.9333 266.104 50.0963 266.851 47.7259H269.326C268.423 50.7284 267.126 53.1382 265.436 54.9556C263.786 56.7729 261.605 58.0568 258.894 58.8074L258.01 63.0741C257.302 66.3926 256.064 68.9012 254.296 70.6C252.528 72.2988 250.229 73.1481 247.4 73.1481C245.396 73.1481 243.785 72.6345 242.567 71.6074C241.388 70.5803 240.798 69.1778 240.798 67.4C240.798 65.4642 241.584 63.7456 243.156 62.2444C244.767 60.7827 247.184 59.5581 250.406 58.5704L251.113 55.3704C250.131 56.4766 249.05 57.3062 247.871 57.8593C246.732 58.4123 245.455 58.6889 244.04 58.6889C242.076 58.6889 240.523 58.0766 239.384 56.8519C238.283 55.5877 237.733 53.8296 237.733 51.5778C237.733 51.0642 237.773 50.4914 237.851 49.8593C237.93 49.1877 238.047 48.4766 238.205 47.7259L242.213 28.7037H250.701L246.457 48.8518C246.417 49.0889 246.379 49.3456 246.339 49.6222C246.299 49.8593 246.28 50.0963 246.28 50.3333C246.28 51.163 246.417 51.8148 246.693 52.2889C247.007 52.7234 247.459 52.9407 248.048 52.9407ZM249.817 61.5333C247.852 62.284 246.398 63.0544 245.455 63.8444C244.512 64.6741 244.04 65.5827 244.04 66.5704C244.04 67.084 244.236 67.5382 244.63 67.9333C245.023 68.3284 245.494 68.5259 246.044 68.5259C246.712 68.5259 247.36 68.0519 247.989 67.1037C248.618 66.1556 249.109 64.8716 249.463 63.2518L249.817 61.5333ZM287.795 31.4296V31.8444L288.443 28.7037H296.931L292.687 48.8518C292.609 49.2074 292.55 49.5432 292.51 49.8593C292.471 50.1358 292.451 50.4321 292.451 50.7481C292.451 51.6173 292.647 52.2692 293.041 52.7037C293.434 53.0988 294.043 53.2963 294.868 53.2963C295.889 53.2963 296.813 52.8222 297.638 51.8741C298.463 50.8864 299.131 49.5037 299.642 47.7259H302.118C300.861 51.3605 299.23 54.1062 297.226 55.963C295.221 57.7803 292.903 58.6889 290.27 58.6889C288.58 58.6889 287.225 58.2148 286.203 57.2667C285.221 56.3185 284.651 54.9753 284.494 53.237C283.276 55.0544 281.92 56.4173 280.427 57.3259C278.973 58.2345 277.402 58.6889 275.712 58.6889C273.276 58.6889 271.35 57.8593 269.935 56.2C268.56 54.5407 267.872 52.1901 267.872 49.1482C267.872 46.9358 268.207 44.6247 268.874 42.2148C269.542 39.8049 270.466 37.6123 271.645 35.637C273.099 33.3062 274.788 31.5284 276.714 30.3037C278.639 29.0395 280.741 28.4074 283.02 28.4074C284.553 28.4074 285.732 28.684 286.557 29.237C287.382 29.7506 287.795 30.4815 287.795 31.4296ZM287.264 34.3333C287.264 33.7407 287.048 33.2271 286.616 32.7926C286.184 32.3185 285.595 32.0815 284.848 32.0815C282.686 32.0815 280.761 33.8988 279.071 37.5333C277.421 41.1679 276.596 44.763 276.596 48.3185C276.596 49.8593 276.812 51.0247 277.244 51.8148C277.676 52.5655 278.442 52.9407 279.543 52.9407C280.564 52.9407 281.547 52.4469 282.49 51.4593C283.473 50.4716 284.121 49.2271 284.435 47.7259L287.264 34.3333Z" fill="#003459"/>
<path d="M44.3688 4.74074C44.3688 6.04444 43.8972 7.15062 42.9542 8.05926C42.0504 8.96791 40.9501 9.42222 39.6534 9.42222C38.3567 9.42222 37.2564 8.96791 36.3526 8.05926C35.4489 7.15062 34.9969 6.04444 34.9969 4.74074C34.9969 3.43704 35.4489 2.33087 36.3526 1.42222C37.2564 0.474075 38.3567 0 39.6534 0C40.9501 0 42.0504 0.474075 42.9542 1.42222C43.8972 2.33087 44.3688 3.43704 44.3688 4.74074Z" fill="#FCE38A"/>
<path d="M28.5502 60.1852H48.3511L52.035 37.0371L56.6398 13.8889H60.3237L52.9559 68.0556H28.5502C28.5502 68.0556 25.3268 69.4445 25.3268 64.3519C25.3268 59.2593 28.5502 60.1852 28.5502 60.1852Z" fill="#02C39A"/>
<path d="M7.48567 18.0371C9.4897 16.7334 11.6312 15.726 13.9104 15.0148C16.2287 14.2642 18.4883 13.8889 20.6887 13.8889C20.9638 13.8889 21.2585 13.9086 21.5729 13.9482C21.9265 13.9482 25.4336 14.0074 26.0623 14.047L25.3267 42.5926L35.9548 14.1852H43.6762V50.4519L52.4954 14.047L59.8632 13.9482L46.5091 58.3334H35.3654L37.7599 28.1704L26.0623 58.3334H15.0303V17.8593C11.8867 18.847 9.50932 20.447 7.89826 22.6593C6.28718 24.8716 5.48163 27.6568 5.48163 31.0148C5.48163 31.7655 5.52093 32.4173 5.59951 32.9704C5.7174 33.5235 5.89423 34.0568 6.12999 34.5704C6.20858 34.7285 6.24788 34.847 6.24788 34.926C6.28718 34.9655 6.30682 35.0049 6.30682 35.0445C4.10631 35.0445 2.49522 34.5901 1.47356 33.6815C0.491185 32.7334 0 31.2716 0 29.2963C0 27.321 0.648365 25.3457 1.94509 23.3704C3.28112 21.3951 5.12798 19.6173 7.48567 18.0371Z" fill="#003459"/>
<path d="M8.7604 28.6544C8.7604 28.6544 9.26802 25.6692 11.1017 25.9438C12.1091 26.0947 12.9747 27.1485 12.9747 27.1485C12.9747 27.1485 14.8645 35.0098 12.9747 39.7979C11.9051 42.5076 8.7604 46.4237 8.7604 46.4237C8.7604 46.4237 6.09986 47.6993 5.01438 47.026C4.09295 46.4546 5.01438 44.9178 5.01438 44.9178C5.01438 44.9178 7.84926 41.3592 8.7604 38.8944C10.1986 35.0038 8.7604 28.6544 8.7604 28.6544Z" fill="#028090"/>
</svg>
